<svg xmlns="http://www.w3.org/2000/svg" width="32" height="32" viewBox="0 0 32 32" fill="rgb(255, 111, 97)">
<path d="M 11.669 20.483 c -0.448 0 -0.812 0.376 -0.812 0.84 s 0.364 0.841 0.812 0.841 c 0.448 0 0.812 -0.376 0.812 -0.841 s -0.363 -0.84 -0.812 -0.84 Z m 1.624 -5.884 c -0.598 0 -1.082 0.501 -1.082 1.12 s 0.484 1.121 1.082 1.121 c 0.598 0 1.082 -0.502 1.082 -1.12 c 0 -0.62 -0.484 -1.121 -1.082 -1.121 Z m 11.369 2.522 c 0.449 0 0.812 -0.376 0.812 -0.84 s -0.363 -0.841 -0.812 -0.841 c -0.448 0 -0.812 0.376 -0.812 0.841 s 0.363 0.84 0.812 0.84 Z m -2.165 -2.522 c 0.598 0 1.082 -0.502 1.082 -1.121 s -0.484 -1.121 -1.082 -1.121 c -0.598 0 -1.083 0.502 -1.083 1.12 c 0 0.62 0.485 1.122 1.082 1.122 h 0.001 Z m -13.806 0.281 c -0.748 0 -1.354 0.627 -1.354 1.401 s 0.606 1.401 1.354 1.401 c 0.748 0 1.354 -0.627 1.354 -1.401 s -0.606 -1.401 -1.354 -1.401 Z"/>
<path d="M 18.274 18.048 l 2.564 -7.551 c 0.129 -0.38 0.057 -0.801 -0.19 -1.111 s -0.631 -0.465 -1.017 -0.408 l -3.25 0.488 l 3.88 -6.111 l 8.611 15.768 l -10.597 -1.075 Z m -5.836 10.258 l -9.42 -14.512 l 15.116 -2.268 l -5.696 16.78 Z m 19.418 -8.388 L 21.298 0.583 A 1.106 1.106 0 0 0 20.369 0 a 1.1 1.1 0 0 0 -0.965 0.518 l -5.961 9.388 L 0.952 11.78 c -0.378 0.057 -0.702 0.31 -0.856 0.671 s -0.12 0.78 0.094 1.108 l 11.64 17.932 a 1.102 1.102 0 0 0 1.062 0.498 c 0.417 -0.055 0.768 -0.349 0.907 -0.759 l 3.717 -10.95 l 13.264 1.346 a 1.104 1.104 0 0 0 1.039 -0.517 c 0.226 -0.36 0.241 -0.819 0.036 -1.193 v 0.001 Z"/>
</svg>