<svg xmlns="http://www.w3.org/2000/svg" width="32" height="32" viewBox="0 0 32 32" fill="rgb(255, 111, 97)">
<path d="M 7.639 26.019 l -5.015 -9.375 c -0.317 -0.935 -0.878 -3.517 0.245 -4.51 c 0.802 -0.709 1.653 -0.602 1.756 -0.586 c 0.284 0.069 0.564 0.018 0.812 -0.14 c 0.25 -0.16 0.41 -0.418 0.476 -0.715 c 0.001 -0.007 0.154 -0.629 0.565 -1.134 c 0.462 -0.567 1.055 -0.736 1.864 -0.531 c 0.515 0.13 1.049 -0.146 1.267 -0.647 c 0.148 -0.342 0.709 -1.292 1.504 -1.586 c 0.465 -0.173 0.978 -0.11 1.567 0.193 c 0.268 0.137 0.562 0.189 0.843 0.085 c 0.276 -0.102 0.488 -0.283 0.612 -0.557 c 0.071 -0.108 0.445 -0.594 1.378 -0.528 c 0.517 0.036 1.136 0.346 1.466 1.479 C 8.007 8.729 4.317 15.146 4.158 15.43 l -0.004 0.009 c -0.021 0.038 -0.04 0.078 -0.058 0.119 l -0.01 0.028 a 0.932 0.932 0 0 0 -0.033 0.102 l -0.01 0.039 a 1.607 1.607 0 0 0 -0.02 0.1 l -0.005 0.035 a 1.137 1.137 0 0 0 -0.009 0.131 v 0.003 l 0.001 0.019 c 0.001 0.04 0.003 0.079 0.007 0.117 l 0.005 0.038 c 0.005 0.034 0.011 0.068 0.019 0.101 l 0.008 0.035 c 0.011 0.043 0.025 0.086 0.04 0.127 l 0.001 0.001 c 0.017 0.044 0.037 0.085 0.059 0.125 l 0.005 0.011 l 3.969 7.254 c 0.196 0.358 0.562 0.579 0.958 0.579 h 20.718 v 1.616 H 7.641 Z m 22.157 -8.6 v 4.695 H 9.72 L 7.015 17.17 l 22.781 0.249 Z M 17.88 9.662 c 0.013 0.01 0.026 0.024 0.04 0.034 c 2.581 1.832 5.981 3.886 8.58 5.397 l -19.148 -0.208 c 1.667 -1.849 5.029 -4.624 10.527 -5.223 h 0.001 Z m 13.532 5.609 c -0.076 -0.042 -7.476 -4.104 -12.094 -7.355 c -0.352 -2.512 -1.698 -4.076 -3.658 -4.213 c -1.286 -0.09 -2.217 0.372 -2.808 0.9 c -0.86 -0.268 -1.712 -0.256 -2.501 0.042 c -1.143 0.432 -1.904 1.347 -2.334 2.021 c -0.832 -0.058 -1.607 0.132 -2.273 0.557 c -0.869 0.556 -1.38 1.392 -1.665 2.033 a 4.545 4.545 0 0 0 -2.639 1.133 c -2.578 2.278 -0.925 6.938 -0.855 7.134 c 0.019 0.053 0.042 0.104 0.068 0.153 l 5.372 10.042 c 0.195 0.364 0.564 0.59 0.964 0.59 h 23.908 c 0.608 0 1.102 -0.512 1.102 -1.144 V 16.283 a 1.15 1.15 0 0 0 -0.588 -1.012 l 0.001 0.001 Z"/>
</svg>
