<svg xmlns="http://www.w3.org/2000/svg" width="32" height="32" viewBox="0 0 32 32" fill="rgb(255, 111, 97)">
    <path d="M 9.232 14.667 c 0.46 0 0.833 -0.373 0.833 -0.833 v -0.541 a 0.833 0.833 0 0 0 -1.666 0 v 0.541 c 0 0.46 0.373 0.833 0.833 0.833 Z m -1.624 0.229 h -0.541 a 0.833 0.833 0 0 0 0 1.666 h 0.541 a 0.833 0.833 0 0 0 0 -1.666 Z m 3.249 1.666 h 0.541 a 0.833 0.833 0 0 0 0 -1.666 h -0.541 a 0.833 0.833 0 0 0 -0.001 1.666 Z"/>
    <path d="M 27.964 22.013 c -0.706 1.287 -0.912 1.539 -1.677 1.539 H 5.712 c -0.764 0 -0.969 -0.251 -1.671 -1.531 c -0.189 -0.344 -0.396 -0.722 -0.647 -1.121 h 25.211 c -0.248 0.396 -0.454 0.771 -0.641 1.112 Z M 5.199 15.729 c 0 -2.224 1.809 -4.033 4.033 -4.033 a 4.037 4.037 0 0 1 4 4.537 l -3.213 2.202 a 0.836 0.836 0 0 0 0.046 -0.27 v -0.541 a 0.832 0.832 0 1 0 -1.666 -0.001 v 0.541 a 0.83 0.83 0 0 0 0.178 0.514 H 6.484 a 4.038 4.038 0 0 1 -1.285 -2.95 Z m 12.037 -7.045 l 0.106 0.249 c 0.444 1.044 0.832 1.955 1.03 3.776 l -2.965 2.033 a 6.249 6.249 0 0 0 -1.807 -3.483 c 1.055 -1.466 2.654 -2.225 3.637 -2.575 Z m 5.56 3.685 c 0.688 0.998 1.725 2.839 1.674 4.785 l -4.455 0.468 l -0.323 -0.899 a 0.833 0.833 0 1 0 -1.568 0.564 l 0.184 0.514 l -4.057 0.426 l 6.301 -4.32 l 0.86 1.73 a 0.834 0.834 0 0 0 1.492 -0.742 l -0.964 -1.94 l 0.856 -0.587 Z m 9.12 6.995 a 1.113 1.113 0 0 0 -1.026 -0.686 h -4.432 c 0.049 -0.094 0.087 -0.196 0.108 -0.305 c 0.196 -1.018 0.15 -2.011 -0.032 -2.936 l 2.314 0.309 a 1.111 1.111 0 0 0 0.294 -2.202 l -2.358 -0.314 l 1.903 -1.849 a 1.112 1.112 0 0 0 -1.547 -1.594 l -2.066 2.007 c -0.599 -0.991 -1.148 -1.617 -1.205 -1.679 a 1.11 1.11 0 0 0 -1.456 -0.177 l -1.996 1.368 c -0.26 -1.441 -0.649 -2.355 -1.029 -3.246 c -0.156 -0.367 -0.304 -0.715 -0.448 -1.107 a 1.11 1.11 0 0 0 -1.252 -0.708 c -0.167 0.031 -3.804 0.763 -5.924 3.765 a 6.215 6.215 0 0 0 -2.53 -0.537 a 6.26 6.26 0 0 0 -6.253 6.254 c 0 1.042 0.261 2.052 0.741 2.95 H 1.113 a 1.111 1.111 0 0 0 -0.785 1.896 c 0.862 0.862 1.344 1.74 1.769 2.515 c 0.69 1.257 1.473 2.683 3.618 2.683 h 20.574 c 2.147 0 2.932 -1.43 3.625 -2.691 c 0.426 -0.774 0.907 -1.651 1.764 -2.507 c 0.317 -0.317 0.412 -0.795 0.241 -1.21 Z"/>
</svg>

