<svg xmlns="http://www.w3.org/2000/svg" width="32" height="32" viewBox="0 0 32 32" fill="rgb(255, 111, 97)">
<path d="M 27.729 26.123 c -0.701 1.276 -0.904 1.526 -1.664 1.526 h -20.4 c -0.758 0 -0.96 -0.249 -1.657 -1.518 c -0.187 -0.341 -0.392 -0.716 -0.641 -1.111 h 24.999 c -0.246 0.392 -0.45 0.764 -0.636 1.103 Z M 3.266 18.001 c -0.299 -2.226 0.218 -4.175 1.495 -5.635 c 1.644 -1.88 4.538 -2.915 8.152 -2.915 c 1.141 0 2.418 0.176 3.575 0.398 a 4.795 4.795 0 0 0 -1.401 0.944 c -2.162 2.164 -2.162 6.104 0 8.267 c 0.958 0.96 2.364 1.488 3.96 1.488 c 1.768 0 3.479 -0.657 4.577 -1.757 c 1.342 -1.343 1.401 -3.426 1.299 -4.633 a 1.77 1.77 0 0 1 0.142 -0.241 c 2.098 1.224 3.121 2.74 3.121 4.632 c 0 1.526 -0.699 2.694 -1.988 4.268 H 5.002 C 3.851 21.346 3.477 19.563 3.267 18 Z m 19.8 -8.438 c 0.174 -0.169 0.343 -0.337 0.501 -0.499 c 0.42 0.287 1.057 0.782 1.59 1.433 c -2.561 2.489 -2.472 3.417 -2.439 3.747 c 0.134 1.352 -0.104 2.442 -0.653 2.992 c -0.684 0.685 -1.841 1.11 -3.019 1.11 c -0.992 0 -1.868 -0.307 -2.402 -0.842 c -1.3 -1.3 -1.3 -3.853 0 -5.154 c 0.561 -0.561 1.766 -0.95 2.849 -0.95 c 0.153 0 0.304 0.007 0.45 0.023 c 0.65 0.072 1.427 -0.217 3.122 -1.86 Z m 1.919 -3.881 c 0.027 -0.335 0.163 -0.664 0.36 -0.861 c 0.323 -0.323 0.543 -0.466 0.698 -0.47 c 0.179 0.004 0.545 0.166 0.748 0.37 c 0.246 0.247 0.295 0.648 0.126 1.024 a 1.1 1.1 0 0 0 1.457 1.456 c 0.449 -0.203 1.018 -0.14 1.207 0.049 a 0.664 0.664 0 0 1 0.215 0.535 c -0.004 0.164 -0.221 0.613 -0.552 0.944 c -0.234 0.235 -0.549 0.392 -0.822 0.41 l -0.026 0.003 c -0.005 0 -0.538 0.047 -1.304 0.047 h -0.09 l -0.07 0.003 c -0.66 -0.829 -1.433 -1.458 -1.993 -1.855 c 0.011 -0.063 0.018 -0.127 0.018 -0.192 c 0.003 -0.842 0.023 -1.37 0.027 -1.463 Z m 5.644 17.136 h -1.67 c 0.815 -1.207 1.429 -2.571 1.429 -4.268 c 0 -2.547 -1.328 -4.72 -3.847 -6.313 c 0.281 -0.281 0.581 -0.569 0.887 -0.849 c 0.635 -0.011 1.073 -0.047 1.156 -0.053 c 0.801 -0.058 1.609 -0.441 2.218 -1.05 c 0.561 -0.563 1.171 -1.499 1.196 -2.443 a 2.872 2.872 0 0 0 -0.859 -2.149 c -0.438 -0.438 -1.144 -0.761 -1.946 -0.815 a 2.974 2.974 0 0 0 -0.845 -1.713 c -0.491 -0.493 -1.381 -0.998 -2.261 -1.016 h -0.053 c -1.004 0 -1.728 0.595 -2.249 1.116 c -0.576 0.576 -0.94 1.408 -1 2.281 l -0.002 0.027 c -0.001 0.02 -0.018 0.428 -0.026 1.143 c -0.68 0.749 -1.404 1.46 -1.962 1.94 l -0.035 -0.013 c -0.18 -0.057 -4.429 -1.394 -7.85 -1.394 c -4.319 0 -7.711 1.268 -9.809 3.667 c -1.708 1.953 -2.406 4.504 -2.02 7.378 c 0.182 1.347 0.497 2.979 1.308 4.524 h -1.29 a 1.102 1.102 0 0 0 -0.779 1.88 c 0.855 0.855 1.332 1.725 1.754 2.494 c 0.685 1.247 1.461 2.661 3.588 2.661 h 20.401 c 2.128 0 2.907 -1.418 3.594 -2.668 c 0.421 -0.768 0.899 -1.637 1.748 -2.486 a 1.102 1.102 0 0 0 -0.778 -1.881 Z"/>
</svg>
