<svg xmlns="http://www.w3.org/2000/svg" width="32" height="32" viewBox="0 0 32 32" fill="rgb(255, 111, 97)">
    <path d="M 14.675 15.867 c 0 -0.607 -0.498 -1.098 -1.111 -1.098 H 2.736 c -0.613 0 -1.111 0.491 -1.111 1.097 s 0.498 1.097 1.111 1.097 h 10.827 c 0.613 0 1.111 -0.491 1.111 -1.097 l 0.001 0.001 Z m -10.586 3.45 c -0.614 0 -1.111 0.491 -1.111 1.097 s 0.497 1.098 1.111 1.098 h 7.309 c 0.613 0 1.11 -0.492 1.11 -1.098 s -0.497 -1.097 -1.11 -1.097 H 4.089 Z m 16.243 -8.562 c -0.613 0 -1.11 0.491 -1.11 1.097 v 6.421 c 0 0.606 0.497 1.097 1.11 1.097 h 4.873 c 0.613 0 1.11 -0.491 1.11 -1.097 s -0.497 -1.097 -1.11 -1.097 h -3.762 v -5.325 c 0 -0.606 -0.498 -1.097 -1.111 -1.097 Z"/>
    <path d="M 21.442 6.528 V 4.657 h 1.867 c 0.613 0 1.111 -0.491 1.111 -1.098 s -0.498 -1.097 -1.111 -1.097 h -5.956 c -0.613 0 -1.11 0.491 -1.11 1.097 s 0.497 1.098 1.11 1.098 h 1.867 v 1.871 a 11.694 11.694 0 0 0 -7.515 3.693 H 1.109 c -0.613 0 -1.11 0.491 -1.11 1.097 s 0.497 1.097 1.11 1.097 h 11.099 c 0.329 0 0.641 -0.144 0.852 -0.393 a 9.489 9.489 0 0 1 7.269 -3.352 c 5.209 0 9.447 4.188 9.447 9.336 s -4.238 9.336 -9.447 9.336 a 9.493 9.493 0 0 1 -7.023 -3.113 a 1.119 1.119 0 0 0 -0.827 -0.365 H 1.108 c -0.613 -0.001 -1.11 0.491 -1.11 1.097 s 0.497 1.097 1.11 1.097 h 10.889 a 11.734 11.734 0 0 0 8.332 3.478 c 6.434 0 11.669 -5.173 11.669 -11.532 c 0 -5.989 -4.643 -10.924 -10.557 -11.478 Z"/>
</svg>
